<svg width="14" height="18" viewBox="0 0 14 18" fill="none" xmlns="http://www.w3.org/2000/svg">
<path d="M7.08354 8.99862C6.16687 8.99862 5.41687 8.24862 5.41687 7.33195C5.41687 6.41528 6.16687 5.66528 7.08354 5.66528C8.0002 5.66528 8.7502 6.41528 8.7502 7.33195C8.7502 8.24862 8.0002 8.99862 7.08354 8.99862ZM12.0835 7.49862C12.0835 4.47362 9.8752 2.33195 7.08354 2.33195C4.29187 2.33195 2.08354 4.47362 2.08354 7.49862C2.08354 9.44862 3.70854 12.032 7.08354 15.1153C10.4585 12.032 12.0835 9.44862 12.0835 7.49862ZM7.08354 0.665283C10.5835 0.665283 13.7502 3.34862 13.7502 7.49862C13.7502 10.2653 11.5252 13.5403 7.08354 17.332C2.64187 13.5403 0.41687 10.2653 0.41687 7.49862C0.41687 3.34862 3.58354 0.665283 7.08354 0.665283Z" fill="white"/>
</svg>
